<svg width="140" height="40" viewBox="0 0 140 40" fill="none" xmlns="http://www.w3.org/2000/svg">
<rect width="20" height="40" rx="4" fill="#DB4444"/>
<path d="M42.864 26L40.4 21.648H39.344V26H37.104V14.832H41.296C42.16 14.832 42.896 14.9867 43.504 15.296C44.112 15.5947 44.5653 16.0053 44.864 16.528C45.1733 17.04 45.328 17.616 45.328 18.256C45.328 18.992 45.1147 19.6587 44.688 20.256C44.2613 20.8427 43.6267 21.248 42.784 21.472L45.456 26H42.864ZM39.344 19.968H41.216C41.824 19.968 42.2773 19.824 42.576 19.536C42.8747 19.2373 43.024 18.8267 43.024 18.304C43.024 17.792 42.8747 17.3973 42.576 17.12C42.2773 16.832 41.824 16.688 41.216 16.688H39.344V19.968ZM55.594 21.376C55.594 21.696 55.5727 21.984 55.53 22.24H49.05C49.1033 22.88 49.3273 23.3813 49.722 23.744C50.1167 24.1067 50.602 24.288 51.178 24.288C52.01 24.288 52.602 23.9307 52.954 23.216H55.37C55.114 24.0693 54.6233 24.7733 53.898 25.328C53.1727 25.872 52.282 26.144 51.226 26.144C50.3727 26.144 49.6047 25.9573 48.922 25.584C48.25 25.2 47.722 24.6613 47.338 23.968C46.9647 23.2747 46.778 22.4747 46.778 21.568C46.778 20.6507 46.9647 19.8453 47.338 19.152C47.7113 18.4587 48.234 17.9253 48.906 17.552C49.578 17.1787 50.3513 16.992 51.226 16.992C52.0687 16.992 52.8207 17.1733 53.482 17.536C54.154 17.8987 54.6713 18.416 55.034 19.088C55.4073 19.7493 55.594 20.512 55.594 21.376ZM53.274 20.736C53.2633 20.16 53.0553 19.7013 52.65 19.36C52.2447 19.008 51.7487 18.832 51.162 18.832C50.6073 18.832 50.138 19.0027 49.754 19.344C49.3807 19.6747 49.1513 20.1387 49.066 20.736H53.274ZM59.469 14.16V26H57.229V14.16H59.469ZM61.1061 21.536C61.1061 20.64 61.2821 19.8453 61.6341 19.152C61.9968 18.4587 62.4821 17.9253 63.0901 17.552C63.7088 17.1787 64.3968 16.992 65.1541 16.992C65.8155 16.992 66.3915 17.1253 66.8821 17.392C67.3835 17.6587 67.7835 17.9947 68.0821 18.4V17.136H70.3381V26H68.0821V24.704C67.7941 25.12 67.3941 25.4667 66.8821 25.744C66.3808 26.0107 65.7995 26.144 65.1381 26.144C64.3915 26.144 63.7088 25.952 63.0901 25.568C62.4821 25.184 61.9968 24.6453 61.6341 23.952C61.2821 23.248 61.1061 22.4427 61.1061 21.536ZM68.0821 21.568C68.0821 21.024 67.9755 20.56 67.7621 20.176C67.5488 19.7813 67.2608 19.4827 66.8981 19.28C66.5355 19.0667 66.1461 18.96 65.7301 18.96C65.3141 18.96 64.9301 19.0613 64.5781 19.264C64.2261 19.4667 63.9381 19.7653 63.7141 20.16C63.5008 20.544 63.3941 21.0027 63.3941 21.536C63.3941 22.0693 63.5008 22.5387 63.7141 22.944C63.9381 23.3387 64.2261 23.6427 64.5781 23.856C64.9408 24.0693 65.3248 24.176 65.7301 24.176C66.1461 24.176 66.5355 24.0747 66.8981 23.872C67.2608 23.6587 67.5488 23.36 67.7621 22.976C67.9755 22.5813 68.0821 22.112 68.0821 21.568ZM75.1339 18.976V23.264C75.1339 23.5627 75.2032 23.7813 75.3419 23.92C75.4912 24.048 75.7365 24.112 76.0779 24.112H77.1179V26H75.7099C73.8219 26 72.8779 25.0827 72.8779 23.248V18.976H71.8219V17.136H72.8779V14.944H75.1339V17.136H77.1179V18.976H75.1339ZM86.969 21.376C86.969 21.696 86.9477 21.984 86.905 22.24H80.425C80.4783 22.88 80.7023 23.3813 81.097 23.744C81.4917 24.1067 81.977 24.288 82.553 24.288C83.385 24.288 83.977 23.9307 84.329 23.216H86.745C86.489 24.0693 85.9983 24.7733 85.273 25.328C84.5477 25.872 83.657 26.144 82.601 26.144C81.7477 26.144 80.9797 25.9573 80.297 25.584C79.625 25.2 79.097 24.6613 78.713 23.968C78.3397 23.2747 78.153 22.4747 78.153 21.568C78.153 20.6507 78.3397 19.8453 78.713 19.152C79.0863 18.4587 79.609 17.9253 80.281 17.552C80.953 17.1787 81.7263 16.992 82.601 16.992C83.4437 16.992 84.1957 17.1733 84.857 17.536C85.529 17.8987 86.0463 18.416 86.409 19.088C86.7823 19.7493 86.969 20.512 86.969 21.376ZM84.649 20.736C84.6383 20.16 84.4303 19.7013 84.025 19.36C83.6197 19.008 83.1237 18.832 82.537 18.832C81.9823 18.832 81.513 19.0027 81.129 19.344C80.7557 19.6747 80.5263 20.1387 80.441 20.736H84.649ZM88.028 21.536C88.028 20.64 88.204 19.8453 88.556 19.152C88.9187 18.4587 89.4093 17.9253 90.028 17.552C90.6467 17.1787 91.3347 16.992 92.092 16.992C92.668 16.992 93.2173 17.12 93.74 17.376C94.2627 17.6213 94.6787 17.952 94.988 18.368V14.16H97.26V26H94.988V24.688C94.7107 25.1253 94.3213 25.4773 93.82 25.744C93.3187 26.0107 92.7373 26.144 92.076 26.144C91.3293 26.144 90.6467 25.952 90.028 25.568C89.4093 25.184 88.9187 24.6453 88.556 23.952C88.204 23.248 88.028 22.4427 88.028 21.536ZM95.004 21.568C95.004 21.024 94.8973 20.56 94.684 20.176C94.4707 19.7813 94.1827 19.4827 93.82 19.28C93.4573 19.0667 93.068 18.96 92.652 18.96C92.236 18.96 91.852 19.0613 91.5 19.264C91.148 19.4667 90.86 19.7653 90.636 20.16C90.4227 20.544 90.316 21.0027 90.316 21.536C90.316 22.0693 90.4227 22.5387 90.636 22.944C90.86 23.3387 91.148 23.6427 91.5 23.856C91.8627 24.0693 92.2467 24.176 92.652 24.176C93.068 24.176 93.4573 24.0747 93.82 23.872C94.1827 23.6587 94.4707 23.36 94.684 22.976C94.8973 22.5813 95.004 22.112 95.004 21.568ZM105.5 14.832V26H103.26V14.832H105.5ZM110.321 18.976V23.264C110.321 23.5627 110.391 23.7813 110.529 23.92C110.679 24.048 110.924 24.112 111.265 24.112H112.305V26H110.897C109.009 26 108.065 25.0827 108.065 23.248V18.976H107.009V17.136H108.065V14.944H110.321V17.136H112.305V18.976H110.321ZM122.157 21.376C122.157 21.696 122.135 21.984 122.093 22.24H115.613C115.666 22.88 115.89 23.3813 116.285 23.744C116.679 24.1067 117.165 24.288 117.741 24.288C118.573 24.288 119.165 23.9307 119.517 23.216H121.933C121.677 24.0693 121.186 24.7733 120.461 25.328C119.735 25.872 118.845 26.144 117.789 26.144C116.935 26.144 116.167 25.9573 115.485 25.584C114.813 25.2 114.285 24.6613 113.901 23.968C113.527 23.2747 113.34 22.4747 113.34 21.568C113.34 20.6507 113.527 19.8453 113.901 19.152C114.274 18.4587 114.797 17.9253 115.469 17.552C116.141 17.1787 116.914 16.992 117.789 16.992C118.631 16.992 119.383 17.1733 120.045 17.536C120.717 17.8987 121.234 18.416 121.597 19.088C121.97 19.7493 122.157 20.512 122.157 21.376ZM119.837 20.736C119.826 20.16 119.618 19.7013 119.213 19.36C118.807 19.008 118.311 18.832 117.725 18.832C117.17 18.832 116.701 19.0027 116.317 19.344C115.943 19.6747 115.714 20.1387 115.629 20.736H119.837ZM134.8 17.008C135.888 17.008 136.762 17.344 137.424 18.016C138.096 18.6773 138.432 19.6053 138.432 20.8V26H136.192V21.104C136.192 20.4107 136.016 19.8827 135.664 19.52C135.312 19.1467 134.832 18.96 134.224 18.96C133.616 18.96 133.13 19.1467 132.768 19.52C132.416 19.8827 132.24 20.4107 132.24 21.104V26H130V21.104C130 20.4107 129.824 19.8827 129.472 19.52C129.12 19.1467 128.64 18.96 128.032 18.96C127.413 18.96 126.922 19.1467 126.56 19.52C126.208 19.8827 126.032 20.4107 126.032 21.104V26H123.792V17.136H126.032V18.208C126.32 17.8347 126.688 17.5413 127.136 17.328C127.594 17.1147 128.096 17.008 128.64 17.008C129.333 17.008 129.952 17.1573 130.496 17.456C131.04 17.744 131.461 18.16 131.76 18.704C132.048 18.192 132.464 17.7813 133.008 17.472C133.562 17.1627 134.16 17.008 134.8 17.008Z" fill="#DB4444"/>
</svg>
