<svg width="192" height="40" viewBox="0 0 192 40" fill="none" xmlns="http://www.w3.org/2000/svg">
<rect width="20" height="40" rx="4" fill="#DB4444"/>
<path d="M45.8809 13.06V14.54H39.8209V19.24H44.7409V20.72H39.8209V27H38.0009V13.06H45.8809ZM58.0791 21.1C58.0791 21.4467 58.0591 21.8133 58.0191 22.2H49.2591C49.3257 23.28 49.6924 24.1267 50.3591 24.74C51.0391 25.34 51.8591 25.64 52.8191 25.64C53.6057 25.64 54.2591 25.46 54.7791 25.1C55.3124 24.7267 55.6857 24.2333 55.8991 23.62H57.8591C57.5657 24.6733 56.9791 25.5333 56.0991 26.2C55.2191 26.8533 54.1257 27.18 52.8191 27.18C51.7791 27.18 50.8457 26.9467 50.0191 26.48C49.2057 26.0133 48.5657 25.3533 48.0991 24.5C47.6324 23.6333 47.3991 22.6333 47.3991 21.5C47.3991 20.3667 47.6257 19.3733 48.0791 18.52C48.5324 17.6667 49.1657 17.0133 49.9791 16.56C50.8057 16.0933 51.7524 15.86 52.8191 15.86C53.8591 15.86 54.7791 16.0867 55.5791 16.54C56.3791 16.9933 56.9924 17.62 57.4191 18.42C57.8591 19.2067 58.0791 20.1 58.0791 21.1ZM56.1991 20.72C56.1991 20.0267 56.0457 19.4333 55.7391 18.94C55.4324 18.4333 55.0124 18.0533 54.4791 17.8C53.9591 17.5333 53.3791 17.4 52.7391 17.4C51.8191 17.4 51.0324 17.6933 50.3791 18.28C49.7391 18.8667 49.3724 19.68 49.2791 20.72H56.1991ZM61.4214 14.26C61.0747 14.26 60.7814 14.14 60.5414 13.9C60.3014 13.66 60.1814 13.3667 60.1814 13.02C60.1814 12.6733 60.3014 12.38 60.5414 12.14C60.7814 11.9 61.0747 11.78 61.4214 11.78C61.7547 11.78 62.0347 11.9 62.2614 12.14C62.5014 12.38 62.6214 12.6733 62.6214 13.02C62.6214 13.3667 62.5014 13.66 62.2614 13.9C62.0347 14.14 61.7547 14.26 61.4214 14.26ZM62.3014 16.04V27H60.4814V16.04H62.3014ZM67.6233 17.54V24C67.6233 24.5333 67.7366 24.9133 67.9633 25.14C68.1899 25.3533 68.5833 25.46 69.1433 25.46H70.4833V27H68.8433C67.8299 27 67.0699 26.7667 66.5633 26.3C66.0566 25.8333 65.8033 25.0667 65.8033 24V17.54H64.3833V16.04H65.8033V13.28H67.6233V16.04H70.4833V17.54H67.6233ZM77.4684 27.18C76.4418 27.18 75.5084 26.9467 74.6684 26.48C73.8418 26.0133 73.1884 25.3533 72.7084 24.5C72.2418 23.6333 72.0084 22.6333 72.0084 21.5C72.0084 20.38 72.2484 19.3933 72.7284 18.54C73.2218 17.6733 73.8884 17.0133 74.7284 16.56C75.5684 16.0933 76.5084 15.86 77.5484 15.86C78.5884 15.86 79.5284 16.0933 80.3684 16.56C81.2084 17.0133 81.8684 17.6667 82.3484 18.52C82.8418 19.3733 83.0884 20.3667 83.0884 21.5C83.0884 22.6333 82.8351 23.6333 82.3284 24.5C81.8351 25.3533 81.1618 26.0133 80.3084 26.48C79.4551 26.9467 78.5084 27.18 77.4684 27.18ZM77.4684 25.58C78.1218 25.58 78.7351 25.4267 79.3084 25.12C79.8818 24.8133 80.3418 24.3533 80.6884 23.74C81.0484 23.1267 81.2284 22.38 81.2284 21.5C81.2284 20.62 81.0551 19.8733 80.7084 19.26C80.3618 18.6467 79.9084 18.1933 79.3484 17.9C78.7884 17.5933 78.1818 17.44 77.5284 17.44C76.8618 17.44 76.2484 17.5933 75.6884 17.9C75.1418 18.1933 74.7018 18.6467 74.3684 19.26C74.0351 19.8733 73.8684 20.62 73.8684 21.5C73.8684 22.3933 74.0284 23.1467 74.3484 23.76C74.6818 24.3733 75.1218 24.8333 75.6684 25.14C76.2151 25.4333 76.8151 25.58 77.4684 25.58ZM100.133 17.14C100.133 18.3 99.7334 19.2667 98.9334 20.04C98.1468 20.8 96.9401 21.18 95.3134 21.18H92.6334V27H90.8134V13.06H95.3134C96.8868 13.06 98.0801 13.44 98.8934 14.2C99.7201 14.96 100.133 15.94 100.133 17.14ZM95.3134 19.68C96.3268 19.68 97.0734 19.46 97.5534 19.02C98.0334 18.58 98.2734 17.9533 98.2734 17.14C98.2734 15.42 97.2868 14.56 95.3134 14.56H92.6334V19.68H95.3134ZM101.715 21.48C101.715 20.36 101.942 19.38 102.395 18.54C102.849 17.6867 103.469 17.0267 104.255 16.56C105.055 16.0933 105.942 15.86 106.915 15.86C107.875 15.86 108.709 16.0667 109.415 16.48C110.122 16.8933 110.649 17.4133 110.995 18.04V16.04H112.835V27H110.995V24.96C110.635 25.6 110.095 26.1333 109.375 26.56C108.669 26.9733 107.842 27.18 106.895 27.18C105.922 27.18 105.042 26.94 104.255 26.46C103.469 25.98 102.849 25.3067 102.395 24.44C101.942 23.5733 101.715 22.5867 101.715 21.48ZM110.995 21.5C110.995 20.6733 110.829 19.9533 110.495 19.34C110.162 18.7267 109.709 18.26 109.135 17.94C108.575 17.6067 107.955 17.44 107.275 17.44C106.595 17.44 105.975 17.6 105.415 17.92C104.855 18.24 104.409 18.7067 104.075 19.32C103.742 19.9333 103.575 20.6533 103.575 21.48C103.575 22.32 103.742 23.0533 104.075 23.68C104.409 24.2933 104.855 24.7667 105.415 25.1C105.975 25.42 106.595 25.58 107.275 25.58C107.955 25.58 108.575 25.42 109.135 25.1C109.709 24.7667 110.162 24.2933 110.495 23.68C110.829 23.0533 110.995 22.3267 110.995 21.5ZM117.731 17.82C118.051 17.1933 118.504 16.7067 119.091 16.36C119.691 16.0133 120.418 15.84 121.271 15.84V17.72H120.791C118.751 17.72 117.731 18.8267 117.731 21.04V27H115.911V16.04H117.731V17.82ZM122.692 21.48C122.692 20.36 122.919 19.38 123.372 18.54C123.825 17.6867 124.445 17.0267 125.232 16.56C126.032 16.0933 126.919 15.86 127.892 15.86C128.852 15.86 129.685 16.0667 130.392 16.48C131.099 16.8933 131.625 17.4133 131.972 18.04V16.04H133.812V27H131.972V24.96C131.612 25.6 131.072 26.1333 130.352 26.56C129.645 26.9733 128.819 27.18 127.872 27.18C126.899 27.18 126.019 26.94 125.232 26.46C124.445 25.98 123.825 25.3067 123.372 24.44C122.919 23.5733 122.692 22.5867 122.692 21.48ZM131.972 21.5C131.972 20.6733 131.805 19.9533 131.472 19.34C131.139 18.7267 130.685 18.26 130.112 17.94C129.552 17.6067 128.932 17.44 128.252 17.44C127.572 17.44 126.952 17.6 126.392 17.92C125.832 18.24 125.385 18.7067 125.052 19.32C124.719 19.9333 124.552 20.6533 124.552 21.48C124.552 22.32 124.719 23.0533 125.052 23.68C125.385 24.2933 125.832 24.7667 126.392 25.1C126.952 25.42 127.572 25.58 128.252 25.58C128.932 25.58 129.552 25.42 130.112 25.1C130.685 24.7667 131.139 24.2933 131.472 23.68C131.805 23.0533 131.972 22.3267 131.972 21.5ZM153.74 13.06L148.48 27H146.38L141.12 13.06H143.06L147.44 25.08L151.82 13.06H153.74ZM160.515 27.18C159.489 27.18 158.555 26.9467 157.715 26.48C156.889 26.0133 156.235 25.3533 155.755 24.5C155.289 23.6333 155.055 22.6333 155.055 21.5C155.055 20.38 155.295 19.3933 155.775 18.54C156.269 17.6733 156.935 17.0133 157.775 16.56C158.615 16.0933 159.555 15.86 160.595 15.86C161.635 15.86 162.575 16.0933 163.415 16.56C164.255 17.0133 164.915 17.6667 165.395 18.52C165.889 19.3733 166.135 20.3667 166.135 21.5C166.135 22.6333 165.882 23.6333 165.375 24.5C164.882 25.3533 164.209 26.0133 163.355 26.48C162.502 26.9467 161.555 27.18 160.515 27.18ZM160.515 25.58C161.169 25.58 161.782 25.4267 162.355 25.12C162.929 24.8133 163.389 24.3533 163.735 23.74C164.095 23.1267 164.275 22.38 164.275 21.5C164.275 20.62 164.102 19.8733 163.755 19.26C163.409 18.6467 162.955 18.1933 162.395 17.9C161.835 17.5933 161.229 17.44 160.575 17.44C159.909 17.44 159.295 17.5933 158.735 17.9C158.189 18.1933 157.749 18.6467 157.415 19.26C157.082 19.8733 156.915 20.62 156.915 21.5C156.915 22.3933 157.075 23.1467 157.395 23.76C157.729 24.3733 158.169 24.8333 158.715 25.14C159.262 25.4333 159.862 25.58 160.515 25.58ZM167.848 21.5C167.848 20.3667 168.075 19.38 168.528 18.54C168.982 17.6867 169.608 17.0267 170.408 16.56C171.222 16.0933 172.148 15.86 173.188 15.86C174.535 15.86 175.642 16.1867 176.508 16.84C177.388 17.4933 177.968 18.4 178.248 19.56H176.288C176.102 18.8933 175.735 18.3667 175.188 17.98C174.655 17.5933 173.988 17.4 173.188 17.4C172.148 17.4 171.308 17.76 170.668 18.48C170.028 19.1867 169.708 20.1933 169.708 21.5C169.708 22.82 170.028 23.84 170.668 24.56C171.308 25.28 172.148 25.64 173.188 25.64C173.988 25.64 174.655 25.4533 175.188 25.08C175.722 24.7067 176.088 24.1733 176.288 23.48H178.248C177.955 24.6 177.368 25.5 176.488 26.18C175.608 26.8467 174.508 27.18 173.188 27.18C172.148 27.18 171.222 26.9467 170.408 26.48C169.608 26.0133 168.982 25.3533 168.528 24.5C168.075 23.6467 167.848 22.6467 167.848 21.5ZM190.677 21.1C190.677 21.4467 190.657 21.8133 190.617 22.2H181.857C181.923 23.28 182.29 24.1267 182.957 24.74C183.637 25.34 184.457 25.64 185.417 25.64C186.203 25.64 186.857 25.46 187.377 25.1C187.91 24.7267 188.283 24.2333 188.497 23.62H190.457C190.163 24.6733 189.577 25.5333 188.697 26.2C187.817 26.8533 186.723 27.18 185.417 27.18C184.377 27.18 183.443 26.9467 182.617 26.48C181.803 26.0133 181.163 25.3533 180.697 24.5C180.23 23.6333 179.997 22.6333 179.997 21.5C179.997 20.3667 180.223 19.3733 180.677 18.52C181.13 17.6667 181.763 17.0133 182.577 16.56C183.403 16.0933 184.35 15.86 185.417 15.86C186.457 15.86 187.377 16.0867 188.177 16.54C188.977 16.9933 189.59 17.62 190.017 18.42C190.457 19.2067 190.677 20.1 190.677 21.1ZM188.797 20.72C188.797 20.0267 188.643 19.4333 188.337 18.94C188.03 18.4333 187.61 18.0533 187.077 17.8C186.557 17.5333 185.977 17.4 185.337 17.4C184.417 17.4 183.63 17.6933 182.977 18.28C182.337 18.8667 181.97 19.68 181.877 20.72H188.797ZM185.357 13.36L182.577 15.06V13.62L185.357 11.96L188.117 13.62V15.06L185.357 13.36Z" fill="black"/>
</svg>
