<svg width="163" height="40" viewBox="0 0 163 40" fill="none" xmlns="http://www.w3.org/2000/svg">
<rect width="20" height="40" rx="4" fill="#DB4444"/>
<path d="M42.1378 13.06C43.6578 13.06 44.9711 13.3467 46.0778 13.92C47.1978 14.48 48.0511 15.2867 48.6378 16.34C49.2378 17.3933 49.5378 18.6333 49.5378 20.06C49.5378 21.4867 49.2378 22.7267 48.6378 23.78C48.0511 24.82 47.1978 25.62 46.0778 26.18C44.9711 26.7267 43.6578 27 42.1378 27H37.7978V13.06H42.1378ZM42.1378 25.5C43.9378 25.5 45.3111 25.0267 46.2578 24.08C47.2045 23.12 47.6778 21.78 47.6778 20.06C47.6778 18.3267 47.1978 16.9733 46.2378 16C45.2911 15.0267 43.9245 14.54 42.1378 14.54H39.6178V25.5H42.1378ZM56.7184 27.18C55.6918 27.18 54.7584 26.9467 53.9184 26.48C53.0918 26.0133 52.4384 25.3533 51.9584 24.5C51.4918 23.6333 51.2584 22.6333 51.2584 21.5C51.2584 20.38 51.4984 19.3933 51.9784 18.54C52.4718 17.6733 53.1384 17.0133 53.9784 16.56C54.8184 16.0933 55.7584 15.86 56.7984 15.86C57.8384 15.86 58.7784 16.0933 59.6184 16.56C60.4584 17.0133 61.1184 17.6667 61.5984 18.52C62.0918 19.3733 62.3384 20.3667 62.3384 21.5C62.3384 22.6333 62.0851 23.6333 61.5784 24.5C61.0851 25.3533 60.4118 26.0133 59.5584 26.48C58.7051 26.9467 57.7584 27.18 56.7184 27.18ZM56.7184 25.58C57.3718 25.58 57.9851 25.4267 58.5584 25.12C59.1318 24.8133 59.5918 24.3533 59.9384 23.74C60.2984 23.1267 60.4784 22.38 60.4784 21.5C60.4784 20.62 60.3051 19.8733 59.9584 19.26C59.6118 18.6467 59.1584 18.1933 58.5984 17.9C58.0384 17.5933 57.4318 17.44 56.7784 17.44C56.1118 17.44 55.4984 17.5933 54.9384 17.9C54.3918 18.1933 53.9518 18.6467 53.6184 19.26C53.2851 19.8733 53.1184 20.62 53.1184 21.5C53.1184 22.3933 53.2784 23.1467 53.5984 23.76C53.9318 24.3733 54.3718 24.8333 54.9184 25.14C55.4651 25.4333 56.0651 25.58 56.7184 25.58ZM70.0714 15.84C71.4047 15.84 72.4847 16.2467 73.3114 17.06C74.1381 17.86 74.5514 19.02 74.5514 20.54V27H72.7514V20.8C72.7514 19.7067 72.4781 18.8733 71.9314 18.3C71.3847 17.7133 70.6381 17.42 69.6914 17.42C68.7314 17.42 67.9647 17.72 67.3914 18.32C66.8314 18.92 66.5514 19.7933 66.5514 20.94V27H64.7314V16.04H66.5514V17.6C66.9114 17.04 67.3981 16.6067 68.0114 16.3C68.6381 15.9933 69.3247 15.84 70.0714 15.84ZM87.5244 21.1C87.5244 21.4467 87.5044 21.8133 87.4644 22.2H78.7044C78.771 23.28 79.1377 24.1267 79.8044 24.74C80.4844 25.34 81.3044 25.64 82.2644 25.64C83.051 25.64 83.7044 25.46 84.2244 25.1C84.7577 24.7267 85.131 24.2333 85.3444 23.62H87.3044C87.011 24.6733 86.4244 25.5333 85.5444 26.2C84.6644 26.8533 83.571 27.18 82.2644 27.18C81.2244 27.18 80.291 26.9467 79.4644 26.48C78.651 26.0133 78.011 25.3533 77.5444 24.5C77.0777 23.6333 76.8444 22.6333 76.8444 21.5C76.8444 20.3667 77.071 19.3733 77.5244 18.52C77.9777 17.6667 78.611 17.0133 79.4244 16.56C80.251 16.0933 81.1977 15.86 82.2644 15.86C83.3044 15.86 84.2244 16.0867 85.0244 16.54C85.8244 16.9933 86.4377 17.62 86.8644 18.42C87.3044 19.2067 87.5244 20.1 87.5244 21.1ZM85.6444 20.72C85.6444 20.0267 85.491 19.4333 85.1844 18.94C84.8777 18.4333 84.4577 18.0533 83.9244 17.8C83.4044 17.5333 82.8244 17.4 82.1844 17.4C81.2644 17.4 80.4777 17.6933 79.8244 18.28C79.1844 18.8667 78.8177 19.68 78.7244 20.72H85.6444ZM99.7188 17.54H97.4188V27H95.5988V17.54H94.1788V16.04H95.5988V15.26C95.5988 14.0333 95.9121 13.14 96.5388 12.58C97.1788 12.0067 98.1988 11.72 99.5987 11.72V13.24C98.7988 13.24 98.2321 13.4 97.8988 13.72C97.5788 14.0267 97.4188 14.54 97.4188 15.26V16.04H99.7188V17.54ZM106.621 27.18C105.594 27.18 104.661 26.9467 103.821 26.48C102.994 26.0133 102.341 25.3533 101.861 24.5C101.394 23.6333 101.161 22.6333 101.161 21.5C101.161 20.38 101.401 19.3933 101.881 18.54C102.374 17.6733 103.041 17.0133 103.881 16.56C104.721 16.0933 105.661 15.86 106.701 15.86C107.741 15.86 108.681 16.0933 109.521 16.56C110.361 17.0133 111.021 17.6667 111.501 18.52C111.994 19.3733 112.241 20.3667 112.241 21.5C112.241 22.6333 111.987 23.6333 111.481 24.5C110.987 25.3533 110.314 26.0133 109.461 26.48C108.607 26.9467 107.661 27.18 106.621 27.18ZM106.621 25.58C107.274 25.58 107.887 25.4267 108.461 25.12C109.034 24.8133 109.494 24.3533 109.841 23.74C110.201 23.1267 110.381 22.38 110.381 21.5C110.381 20.62 110.207 19.8733 109.861 19.26C109.514 18.6467 109.061 18.1933 108.501 17.9C107.941 17.5933 107.334 17.44 106.681 17.44C106.014 17.44 105.401 17.5933 104.841 17.9C104.294 18.1933 103.854 18.6467 103.521 19.26C103.187 19.8733 103.021 20.62 103.021 21.5C103.021 22.3933 103.181 23.1467 103.501 23.76C103.834 24.3733 104.274 24.8333 104.821 25.14C105.367 25.4333 105.967 25.58 106.621 25.58ZM116.454 17.82C116.774 17.1933 117.227 16.7067 117.814 16.36C118.414 16.0133 119.14 15.84 119.994 15.84V17.72H119.514C117.474 17.72 116.454 18.8267 116.454 21.04V27H114.634V16.04H116.454V17.82ZM136.867 16.04L130.267 32.16H128.387L130.547 26.88L126.127 16.04H128.147L131.587 24.92L134.987 16.04H136.867ZM143.476 27.18C142.45 27.18 141.516 26.9467 140.676 26.48C139.85 26.0133 139.196 25.3533 138.716 24.5C138.25 23.6333 138.016 22.6333 138.016 21.5C138.016 20.38 138.256 19.3933 138.736 18.54C139.23 17.6733 139.896 17.0133 140.736 16.56C141.576 16.0933 142.516 15.86 143.556 15.86C144.596 15.86 145.536 16.0933 146.376 16.56C147.216 17.0133 147.876 17.6667 148.356 18.52C148.85 19.3733 149.096 20.3667 149.096 21.5C149.096 22.6333 148.843 23.6333 148.336 24.5C147.843 25.3533 147.17 26.0133 146.316 26.48C145.463 26.9467 144.516 27.18 143.476 27.18ZM143.476 25.58C144.13 25.58 144.743 25.4267 145.316 25.12C145.89 24.8133 146.35 24.3533 146.696 23.74C147.056 23.1267 147.236 22.38 147.236 21.5C147.236 20.62 147.063 19.8733 146.716 19.26C146.37 18.6467 145.916 18.1933 145.356 17.9C144.796 17.5933 144.19 17.44 143.536 17.44C142.87 17.44 142.256 17.5933 141.696 17.9C141.15 18.1933 140.71 18.6467 140.376 19.26C140.043 19.8733 139.876 20.62 139.876 21.5C139.876 22.3933 140.036 23.1467 140.356 23.76C140.69 24.3733 141.13 24.8333 141.676 25.14C142.223 25.4333 142.823 25.58 143.476 25.58ZM161.209 16.04V27H159.389V25.38C159.043 25.94 158.556 26.38 157.929 26.7C157.316 27.0067 156.636 27.16 155.889 27.16C155.036 27.16 154.269 26.9867 153.589 26.64C152.909 26.28 152.369 25.7467 151.969 25.04C151.583 24.3333 151.389 23.4733 151.389 22.46V16.04H153.189V22.22C153.189 23.3 153.463 24.1333 154.009 24.72C154.556 25.2933 155.303 25.58 156.249 25.58C157.223 25.58 157.989 25.28 158.549 24.68C159.109 24.08 159.389 23.2067 159.389 22.06V16.04H161.209Z" fill="black"/>
</svg>
